<svg xmlns="http://www.w3.org/2000/svg" width="80" height="80"><path fill="#fff" d="M43.1 16.3L35 23.8H8.3c-1.4 0-3.7 1.8-3.7 3.2v44.3H62v-1.2H42.5v-8.7l19.6-.2v-1.4l-7-7.5h7V19.5c0-1.5-1.5-3.2-3.6-3.2H43.1z"/><path fill="#edc87e" d="M43 15l-8 7.5H8.6c-2 0-5 2.3-5 4.4v45.6h57.5l2.3-2.4h-21V70H6.2V26.9C6.3 26 8 25 8.8 25H36l.7-.7 7.5-6.8H59c1.2 0 2.2 1 2.2 1.9v32.9h2.5v-33c0-2.1-2-4.3-4.7-4.3H43zm18.3 43.9V61h2l-2-2.2z"/><path fill="#fff" d="M10 61.3V12.5h27.6l11.1 11v37.8H10z"/><path fill="gray" d="M8.8 11.3v52.5h33.6v-2.4l7.6-.1V23.2l-12-12H8.8zm2.4 2.4H37l10.5 10.5v37H11.2V13.8z"/><path fill="none" stroke="gray" stroke-width="2.5" stroke-miterlimit="10" d="M36.3 13.8V25h11.5"/><path fill="#edc87e" d="M25 32.5s-1.7 0-3 .6c-1.1.7-1.9 1.9-1.9 1.9L3.7 71.9h58l1.7-1.8h-21v-8.7l20.9-.3-8.3-8.8h12.5l2.7 2.7 7.1-18.8s.7-2.4.4-3c-.2-.6-2.7-.7-2.7-.7H25z"/><path fill="#4d82b8" d="M58.2 77.5l8.5-8.8h-23v-6.2h23l-8.5-8.8h8L77.6 65v1.3L66.3 77.5h-8.1z"/></svg>