<svg xmlns="http://www.w3.org/2000/svg" width="80" height="80"><path fill="#76a797" d="M33.4 59.3c-4-1.9-10.3-17.8-10.3-17.8s-7.6 2-9.7 3.3c-2 1.2-4.8 3.2-6.3 7a33.8 33.8 0 0 0-1.5 15.5c1 2 5 5.5 13 6.5 6.2.7 12.6 1 15.1 1V59.3h-.3"/><path fill="#76a797" d="M33.8 59.3c4-1.9 10.4-17.8 10.4-17.8s7.7 2 9.9 3.3c2 1.2 4.7 3.2 6.3 7A33.4 33.4 0 0 1 62 67.4c-1 2-5 5.5-13.2 6.5-6.2.7-12.8 1-15.3 1V59.3h.4"/><circle cx="34" cy="24" r="16" fill="#76a797"/><circle cx="61" cy="61" r="16" fill="#4d82b8"/><text x="56" y="73" fill="#fff" font-weight="bold" font-size="32" font-family="Segoe UI">i</text></svg>