<svg xmlns="http://www.w3.org/2000/svg" width="80" height="80"><path fill="#d86344" d="M60.5 51.9a14.3 14.3 0 0 0-6.3-7c-2.2-1.3-9.8-3.4-9.8-3.4s-6.3 16-10.3 17.8h-.4-.3C29.4 57.5 23 41.5 23 41.5s-7.6 2-9.8 3.3c-1.9 1.2-4.7 3.2-6.2 7a33.8 33.8 0 0 0-1.5 15.5c1 2 5 5.5 13 6.5 6.2.7 12.6 1 15.1 1s9-.3 15.1-1c8.2-1 12.1-4.5 13.1-6.5s.1-11.6-1.5-15.4M49.4 23a15.6 15.6 0 1 1-31.3 0 15.6 15.6 0 0 1 31.3 0"/><path fill="#edc87e" d="M76.2 72.1c2.7 4 0 5.4-2.7 5.4h-27c-2.7 0-5.4-1.3-2.7-5.4L56 49.4c1.3-2.7 1.8-4.4 4-4.4s2.7 1.7 4 4.3l12.2 22.8z"/><path fill="#505050" d="M57.5 51.3h5l-1.3 16.2h-2.5l-1.2-16.3zm5 21.2a2.5 2.5 0 1 1-5 0 2.5 2.5 0 0 1 5 0"/></svg>